<svg width="16" height="16" viewBox="0 0 16 16" fill="none" xmlns="http://www.w3.org/2000/svg">
<g clip-path="url(#clip0_2340_1112)">
<path d="M11.3333 8.93317V10.9332C11.3333 13.5998 10.2666 14.6665 7.59998 14.6665H5.06665C2.39998 14.6665 1.33331 13.5998 1.33331 10.9332V8.39984C1.33331 5.73317 2.39998 4.6665 5.06665 4.6665H7.06665" stroke="#C6CDD3" stroke-linecap="round" stroke-linejoin="round"/>
<path d="M7.73335 1.3335H10.4M4.66669 3.3335C4.66669 2.22683 5.56002 1.3335 6.66669 1.3335H8.41335M14.6667 5.3335V9.46016C14.6667 10.4935 13.8267 11.3335 12.7934 11.3335M14.6667 5.3335H12.6667C11.1667 5.3335 10.6667 4.8335 10.6667 3.3335V1.3335L14.6667 5.3335ZM11.3334 8.9335H9.20002C7.60002 8.9335 7.06669 8.40016 7.06669 6.80016V4.66683L11.3334 8.9335Z" stroke="#C6CDD3" stroke-linecap="round" stroke-linejoin="round"/>
</g>
<defs>
<clipPath id="clip0_2340_1112">
<rect width="16" height="16" fill="white"/>
</clipPath>
</defs>
</svg>
