<svg width="16" height="16" viewBox="0 0 16 16" fill="none" xmlns="http://www.w3.org/2000/svg">
<g clip-path="url(#clip0_2340_1108)">
<path d="M9.68666 6.31339L6.31333 9.68672C5.86599 9.23939 5.61469 8.63268 5.61469 8.00005C5.61469 7.68681 5.67638 7.37663 5.79626 7.08724C5.91613 6.79784 6.09183 6.53488 6.31333 6.31339C6.53482 6.09189 6.79778 5.91619 7.08717 5.79632C7.37657 5.67644 7.68675 5.61475 7.99999 5.61475C8.63261 5.61475 9.23933 5.86605 9.68666 6.31339Z" stroke="#C6CDD3" stroke-linecap="round" stroke-linejoin="round"/>
<path d="M11.88 3.84682C10.7133 2.96682 9.37999 2.48682 7.99999 2.48682C5.64665 2.48682 3.45332 3.87348 1.92665 6.27348C1.32665 7.21348 1.32665 8.79348 1.92665 9.73348C2.45332 10.5602 3.06665 11.2735 3.73332 11.8468M5.61332 13.0202C6.37332 13.3402 7.17999 13.5135 7.99999 13.5135C10.3533 13.5135 12.5467 12.1268 14.0733 9.72682C14.6733 8.78682 14.6733 7.20682 14.0733 6.26682C13.8533 5.92015 13.6133 5.59348 13.3667 5.28682" stroke="#C6CDD3" stroke-linecap="round" stroke-linejoin="round"/>
<path d="M10.34 8.46683C10.2497 8.93188 10.0225 9.35932 9.68749 9.69431C9.35251 10.0293 8.92506 10.2565 8.46001 10.3468M6.31334 9.68683L1.33334 14.6668M14.6667 1.3335L9.68668 6.3135" stroke="#C6CDD3" stroke-linecap="round" stroke-linejoin="round"/>
</g>
<defs>
<clipPath id="clip0_2340_1108">
<rect width="16" height="16" fill="white"/>
</clipPath>
</defs>
</svg>
