<svg width="15" height="16" viewBox="0 0 15 16" fill="none" xmlns="http://www.w3.org/2000/svg">
<path opacity="0.5" fill-rule="evenodd" clip-rule="evenodd" d="M8.74121 10.9098C7.86308 11.4747 6.81792 11.8023 5.69622 11.8023C2.58352 11.8023 0.0601807 9.27901 0.0601807 6.16631C0.0601807 3.05361 2.58352 0.530273 5.69622 0.530273C8.80891 0.530273 11.3323 3.05361 11.3323 6.16631C11.3323 7.28801 11.0046 8.33318 10.4397 9.2113C10.4698 9.23517 10.4989 9.26102 10.5267 9.28886L14.7071 13.4692C15.0976 13.8597 15.0976 14.4929 14.7071 14.8834L14.4133 15.1772C14.0228 15.5677 13.3896 15.5677 12.9991 15.1772L8.81877 10.9968C8.79093 10.969 8.76508 10.9399 8.74121 10.9098ZM9.72196 6.16631C9.72196 8.38966 7.91957 10.192 5.69622 10.192C3.47286 10.192 1.67048 8.38966 1.67048 6.16631C1.67048 3.94295 3.47286 2.14057 5.69622 2.14057C7.91957 2.14057 9.72196 3.94295 9.72196 6.16631Z" fill="#C6CDD3"/>
</svg>
