<svg width="25" height="26" viewBox="0 0 25 26" fill="none" xmlns="http://www.w3.org/2000/svg">
<path fill-rule="evenodd" clip-rule="evenodd" d="M15.6937 14.3227C15.3915 15.7432 14.2744 16.8603 12.8539 17.1624C10.1457 17.7384 7.79303 15.385 8.36912 12.6773C8.64155 11.3969 9.92815 10.1102 11.2085 9.83768C13.9162 9.26134 16.2698 11.6142 15.6937 14.3227ZM21.2682 12.0437L19.287 11.7132C19.1463 11.1377 18.9425 10.5871 18.678 10.0724C18.6669 10.0507 18.6695 10.0247 18.6848 10.0057L19.9279 8.46429C20.1977 8.13193 20.1854 7.65374 19.901 7.33299L19.1131 6.44618C18.8275 6.12574 18.3538 6.05798 17.9925 6.28624L16.2983 7.35133C15.5638 6.83815 14.7332 6.45723 13.8375 6.2328C13.8138 6.22683 13.7958 6.20745 13.7917 6.18326L13.4669 4.23121C13.3973 3.80946 13.0324 3.5 12.6039 3.5H11.4165C10.989 3.5 10.6228 3.80946 10.5547 4.23121L10.2281 6.18399C10.2241 6.20811 10.2061 6.22744 10.1824 6.23338C9.45755 6.41503 8.77675 6.70173 8.1531 7.07656C8.13208 7.08919 8.10568 7.08826 8.08572 7.074L6.50727 5.9475C6.16002 5.69939 5.68303 5.73819 5.37998 6.04061L4.54112 6.88009C4.2387 7.18315 4.1999 7.66014 4.44867 8.00741L5.57782 9.58902C5.59205 9.60896 5.59303 9.63536 5.58043 9.65637C5.20925 10.2752 4.92553 10.952 4.74407 11.6702C4.73807 11.6939 4.71875 11.7118 4.69465 11.7159L2.73117 12.0437C2.31007 12.1133 2 12.4783 2 12.9067V14.0933C2 14.5217 2.31007 14.8867 2.73117 14.9563L4.69458 15.2841C4.71872 15.2882 4.73807 15.3061 4.74403 15.3299C4.89165 15.9163 5.10192 16.4772 5.37833 16.9993C5.38985 17.0211 5.38742 17.0475 5.37193 17.0667L4.13492 18.5988C3.8661 18.9309 3.87738 19.4094 4.16178 19.7298L4.94912 20.6167C5.23475 20.9377 5.70865 21.0042 6.06997 20.7765L7.75468 19.7182C7.77533 19.7052 7.80165 19.7058 7.82185 19.7194C8.5409 20.2054 9.35205 20.5632 10.2215 20.7765L10.5548 22.7687C10.6228 23.1905 10.989 23.5 11.4165 23.5H12.6039C13.0324 23.5 13.3973 23.1905 13.4669 22.7688L13.7923 20.8163C13.7963 20.7922 13.8143 20.7728 13.8381 20.7669C14.5535 20.5877 15.2255 20.3061 15.8432 19.9379C15.8643 19.9254 15.8905 19.9263 15.9104 19.9406L17.5562 21.116C17.9028 21.365 18.3801 21.3259 18.6828 21.0225L19.5221 20.1833C19.8241 19.8812 19.865 19.4044 19.6142 19.0565L18.4427 17.4139C18.4284 17.394 18.4275 17.3676 18.4401 17.3466C18.8123 16.7257 19.0976 16.0476 19.278 15.3262C19.284 15.3024 19.3033 15.2844 19.3275 15.2804L21.2688 14.9562C21.6912 14.8866 22 14.5216 22 14.0932V12.9067C21.9994 12.4783 21.6905 12.1133 21.2682 12.0437Z" fill="#C6CDD3"/>
</svg>
