<svg width="24" height="25" viewBox="0 0 24 25" fill="none" xmlns="http://www.w3.org/2000/svg">
<path fill-rule="evenodd" clip-rule="evenodd" d="M5.39575 7.61377H18.8507C19.1981 7.61377 19.4795 7.93397 19.4795 8.32896C19.4795 8.40903 19.4677 8.48853 19.4445 8.56414L19.038 9.89236C18.9501 10.1798 18.7118 10.3724 18.4442 10.3724H5.799C5.53087 10.3724 5.29224 10.179 5.20472 9.89065L4.80146 8.56243C4.68811 8.18907 4.86229 7.78189 5.19051 7.65294C5.25654 7.62701 5.3259 7.61377 5.39575 7.61377ZM7.68447 12.2115H16.562C16.9036 12.2115 17.1806 12.5316 17.1806 12.9266C17.1806 13.0124 17.1672 13.0975 17.1412 13.1778L16.7105 14.506C16.6199 14.7851 16.3891 14.9701 16.1312 14.9701H8.09233C7.83046 14.9701 7.59697 14.7794 7.50936 14.4941L7.10151 13.166C6.98721 12.7937 7.15555 12.3848 7.47751 12.2527C7.54397 12.2254 7.61395 12.2115 7.68447 12.2115ZM10.4424 16.8092H13.8041C14.1453 16.8092 14.422 17.1294 14.422 17.5244C14.422 17.594 14.4132 17.6632 14.3959 17.7298L14.0518 19.058C13.9733 19.3606 13.7328 19.5678 13.4599 19.5678H10.8239C10.5578 19.5678 10.3214 19.3706 10.2375 19.0782L9.85603 17.75C9.74839 17.3752 9.92365 16.9703 10.2475 16.8458C10.3103 16.8215 10.3762 16.8092 10.4424 16.8092Z" fill="#C6CDD3"/>
</svg>
